# xmcd
#
# Track frame offsets:
#	150
#	15315
#	25727
#	40292
#	52377
#	71602
#	82717
#	94980
#	107372
#	122770
#	137082
#	149180
#	159047
#	173052
#	182407
#
# Disc length: 2453 seconds
#
# Revision: 2
# Processed by: cddbd v1.5.1PL0 Copyright (c) Steve Scherf et al.
# Submitted via: EasyCDDAExtractor 4.6.9.1
#
DISCID=bf09930f
DTITLE=David Peterson and 1946 - 1946
DYEAR=2001
DGENRE=Bluegrass
TTITLE0=Thinking About You
TTITLE1=In Foggy Old London
TTITLE2=Blue Yodel No 3
TTITLE3=I Worship You
TTITLE4=The Butcher Boy
TTITLE5=The Old Home
TTITLE6=My Darling's Last Goodbye
TTITLE7=Don't make Me Go To Bed And I'll Be Good
TTITLE8=Bouquet In Heaven
TTITLE9=Walking To Westport
TTITLE10=I'm Traveling On And On
TTITLE11=I'll Claim The Blame
TTITLE12=Homesick
TTITLE13=Cold Wind
TTITLE14=Bonus Track
EXTD=
EXTT0=
EXTT1=
EXTT2=
EXTT3=
EXTT4=
EXTT5=
EXTT6=
EXTT7=
EXTT8=
EXTT9=
EXTT10=
EXTT11=
EXTT12=
EXTT13=
EXTT14=
PLAYORDER=
